<svg width="24" height="24" viewBox="0 0 24 24" fill="none" xmlns="http://www.w3.org/2000/svg">
<path d="M12.0001 22.0001C10.6334 22.0001 9.34176 21.7376 8.12509 21.2126C6.90843 20.6876 5.84593 19.9709 4.93759 19.0626C4.02926 18.1543 3.31259 17.0918 2.78759 15.8751C2.26259 14.6584 2.00009 13.3584 2.00009 11.9751C2.00009 10.6084 2.26259 9.31676 2.78759 8.10009C3.31259 6.88343 4.02926 5.82509 4.93759 4.92509C5.84593 4.02509 6.90843 3.31259 8.12509 2.78759C9.34176 2.26259 10.6418 2.00009 12.0251 2.00009C13.3918 2.00009 14.6834 2.26259 15.9001 2.78759C17.1168 3.31259 18.1751 4.02509 19.0751 4.92509C19.9751 5.82509 20.6876 6.88343 21.2126 8.10009C21.7376 9.31676 22.0001 10.6168 22.0001 12.0001C22.0001 13.3668 21.7376 14.6584 21.2126 15.8751C20.6876 17.0918 19.9751 18.1543 19.0751 19.0626C18.1751 19.9709 17.1168 20.6876 15.9001 21.2126C14.6834 21.7376 13.3834 22.0001 12.0001 22.0001ZM12.0251 20.5001C14.3751 20.5001 16.3751 19.6709 18.0251 18.0126C19.6751 16.3543 20.5001 14.3418 20.5001 11.9751C20.5001 9.62509 19.6751 7.62509 18.0251 5.97509C16.3751 4.32509 14.3668 3.50009 12.0001 3.50009C9.65009 3.50009 7.64593 4.32509 5.98759 5.97509C4.32926 7.62509 3.50009 9.63343 3.50009 12.0001C3.50009 14.3501 4.32926 16.3543 5.98759 18.0126C7.64593 19.6709 9.65843 20.5001 12.0251 20.5001Z" fill="black"/>
<path d="M12.0805 8.83234C11.7038 8.83234 11.4393 8.75612 11.2869 8.60368C11.1434 8.45124 11.0717 8.26293 11.0717 8.03875V7.75628C11.0717 7.5321 11.1434 7.34379 11.2869 7.19135C11.4393 7.03891 11.6994 6.96269 12.067 6.96269C12.4436 6.96269 12.7037 7.03891 12.8471 7.19135C12.9996 7.34379 13.0758 7.5321 13.0758 7.75628V8.03875C13.0758 8.26293 12.9996 8.45124 12.8471 8.60368C12.7037 8.75612 12.4481 8.83234 12.0805 8.83234ZM8.97333 15.8536H11.3407V11.2804H8.97333V10.0967H12.8068V15.8536H15.0262V17.0373H8.97333V15.8536Z" fill="black"/>
</svg>
